# xmcd
#
# Track frame offsets:
#	150
#	18980
#	38830
#	54840
#	72835
#	92213
#	108308
#	125805
#	141013
#	159470
#
# Disc length: 2412 seconds
#
# Revision: 0
# Processed by: cddbd v1.5.1PL2 Copyright (c) Steve Scherf et al.
# Submitted via: audiograbber 1.83.01
#
DISCID=81096a0a
DTITLE=калпгс кибиеяатос - ас еива тг думалг
DYEAR=1993
DGENRE=екк поп 
TTITLE0=пыс 
TTITLE1=ас еива тг думалг 
TTITLE2=йоккглемос 
TTITLE3=лоу кеипеис 
TTITLE4=пяицйгпас йи акгтгс 
TTITLE5=сам тяеккос 
TTITLE6=йкежтяа 
TTITLE7=типота 
TTITLE8=ам 
TTITLE9=суццмылг 
EXTD=
EXTT0=
EXTT1=
EXTT2=
EXTT3=
EXTT4=
EXTT5=
EXTT6=
EXTT7=
EXTT8=
EXTT9=
PLAYORDER=
